#!OML:ASF Y:\EmotionMaleHayes\Project 1\Capture day 1\Session 1\Male1.ASF
:FULLY-SPECIFIED
:DEGREES
977
root 44.0069 16.5996 -8.11377 531.621 -34.3093 548.105
lowerback 10.3296 1.01096 1.62617
upperback 3.76475 1.2775 1.55352
thorax -1.87119 0.52282 0.546569
lowerneck -15.2967 12.5209 14.5624
upperneck 25.1304 16.7689 -12.2496
head 13.375 7.19229 -4.23273
rclavicle 2.08227e-014 9.93923e-015
rhumerus -32.088 -10.3222 -67.5064
rradius 30.4738
rwrist 0.182989
rhand -16.3509 -35.2211
rfingers 7.12502
rthumb 9.8616 -64.9702
lclavicle 2.08227e-014 9.93923e-015
lhumerus -31.1668 -6.76703 88.0561
lradius 27.2449
lwrist -13.2813
lhand -14.9426 -20.1635
lfingers 7.12502
lthumb 11.2201 9.51641
rfemur -7.57893 1.84333 21.0757
rtibia 24.2859
rfoot -16.2508 -1.25446
rtoes -2.19805
lfemur -0.814169 0.586434 -14.6113
ltibia 64.8066
lfoot -0.363995 -0.842879
ltoes 12.2709
978
root 43.949 16.6389 -8.2289 531.515 -35.0766 548.143
lowerback 10.4664 1.07838 1.72952
upperback 3.81327 1.3751 1.53699
thorax -1.8924 0.570185 0.458389
lowerneck -15.5259 12.536 14.4083
upperneck 25.3824 16.7709 -12.0367
head 13.486 7.18872 -4.11878
rclavicle 5.54112e-014 1.03368e-014
rhumerus -30.9721 -9.91823 -67.3645
rradius 30.6474
rwrist -0.367127
rhand -16.2087 -35.2013
rfingers 7.12502
rthumb 9.99882 -64.9438
lclavicle 5.54112e-014 1.03368e-014
lhumerus -31.3355 -5.86375 87.4109
lradius 25.9031
lwrist -15.233
lhand -14.145 -20.6764
lfingers 7.12502
lthumb 11.9893 8.96025
rfemur -6.4531 1.54774 21.039
rtibia 23.5013
rfoot -16.4835 -1.6187
rtoes -1.26898
lfemur -2.63543 1.38528 -14.5279
ltibia 65.776
lfoot -0.74894 -1.04397
ltoes 3.94908
979
root 43.9097 16.6851 -8.33995 530.966 -35.9501 548.984
lowerback 10.7659 1.08431 2.30592
upperback 3.78069 1.44866 1.7615
thorax -2.07929 0.602563 0.353538
lowerneck -15.6952 12.4263 14.1624
upperneck 25.5536 16.6422 -11.9205
head 13.5315 7.11182 -4.05942
rclavicle 5.21313e-014 -2.70347e-014
rhumerus -30.0996 -8.95351 -67.4049
rradius 31.1924
rwrist -1.066
rhand -16.3188 -35.6376
rfingers 7.12502
rthumb 9.89257 -65.3852
lclavicle 5.21313e-014 -2.70347e-014
lhumerus -31.4288 -4.21614 86.4987
lradius 24.3835
lwrist -18.0858
lhand -13.3234 -21.5798
lfingers 7.12502
lthumb 12.7814 8.00891
rfemur -5.43736 1.32388 21.8969
rtibia 22.6893
rfoot -16.6923 -2.40897
rtoes -2.39042
lfemur -4.7393 1.72005 -13.4879
ltibia 66.8357
lfoot -1.08054 -1.86745
ltoes 8.91543
980
root 43.8543 16.7222 -8.45255 530.751 -36.6041 549.001
lowerback 11.0459 1.20016 2.31476
upperback 3.8316 1.60483 1.76878
thorax -2.17779 0.676481 0.332535
lowerneck -15.7137 12.232 13.9286
upperneck 25.5025 16.4127 -11.896
head 13.4488 6.99571 -4.06192
rclavicle 6.65929e-015 -6.75868e-015
rhumerus -29.0788 -8.23221 -67.3456
rradius 31.4949
rwrist -1.61612
rhand -16.6916 -35.9034
rfingers 7.12502
rthumb 9.53291 -65.6678
lclavicle 6.65929e-015 -6.75868e-015
lhumerus -31.616 -2.76404 85.515
lradius 23.1797
lwrist -20.8606
lhand -12.6687 -21.9326
lfingers 7.12502
lthumb 13.4126 7.6156
rfemur -4.17933 1.0526 21.8897
rtibia 21.772
rfoot -16.8121 -2.78173
rtoes -2.95383
lfemur -6.33714 2.2863 -13.3916
ltibia 67.3016
lfoot -1.38451 -2.47919
ltoes 11.1414
981
root 43.7966 16.7532 -8.57187 530.723 -37.2281 548.879
lowerback 11.0918 1.30617 2.16033
upperback 3.89251 1.72615 1.74373
thorax -2.14261 0.736119 0.377771
lowerneck -15.7291 12.1464 13.7727
upperneck 25.4677 16.3156 -11.8431
head 13.3991 6.94812 -4.03606
rclavicle -2.29099e-014 -4.09496e-014
rhumerus -27.6334 -9.15708 -66.8683
rradius 30.9428
rwrist -0.311596
rhand -16.726 -35.5222
rfingers 7.12502
rthumb 9.49971 -65.2881
lclavicle -2.29099e-014 -4.09496e-014
lhumerus -31.9132 -1.73142 84.7042
lradius 22.1347
lwrist -22.648
lhand -12.3679 -22.4391
lfingers 7.12502
lthumb 13.7025 7.0898
rfemur -2.99706 0.899385 21.7537
rtibia 20.8205
rfoot -16.9715 -3.12028
rtoes -2.44256
lfemur -7.94001 2.85437 -13.4508
ltibia 67.6875
lfoot -1.72418 -3.1406
ltoes 12.5607
982
root 43.7459 16.7872 -8.6869 530.468 -38.0471 548.924
lowerback 11.3649 1.33046 2.07961
upperback 3.96392 1.74924 1.79199
thorax -2.22131 0.742753 0.465642
lowerneck -15.8659 12.1036 13.665
upperneck 25.5194 16.2942 -11.8943
head 13.4402 6.91613 -4.03928
rclavicle -5.73991e-014 1.98785e-014
rhumerus -26.294 -9.70483 -66.3831
rradius 30.6226
rwrist 0.778742
rhand -16.5506 -35.2413
rfingers 7.12502
rthumb 9.66899 -64.9994
lclavicle -5.73991e-014 1.98785e-014
lhumerus -32.1948 -0.340491 83.7453
lradius 21.1146
lwrist -24.7812
lhand -11.4867 -22.5258
lfingers 7.12502
lthumb 14.5516 6.94382
rfemur -1.63338 0.671215 21.7612
rtibia 19.777
rfoot -17.2144 -3.59377
rtoes -2.00402
lfemur -9.61895 3.45601 -13.3923
ltibia 68.1885
lfoot -2.31752 -3.80515
ltoes 10.0208
983
root 43.6859 16.8183 -8.80034 530.139 -38.7238 549.23
lowerback 11.5207 1.35165 2.26072
upperback 4.0024 1.79708 1.93122
thorax -2.26408 0.76256 0.49964
lowerneck -16.0093 12.0824 13.439
upperneck 25.5914 16.3297 -11.9158
head 13.4846 6.89893 -4.00072
rclavicle 2.04251e-014 1.90833e-014
rhumerus -25.2512 -8.73723 -66.1125
rradius 30.9419
rwrist 0.436392
rhand -16.6027 -35.511
rfingers 7.12502
rthumb 9.61864 -65.2714
lclavicle 2.04251e-014 1.90833e-014
lhumerus -32.5244 2.3434 82.1591
lradius 20.2179
lwrist -28.9636
lhand -11.6478 -23.4726
lfingers 7.12502
lthumb 14.3964 6.00815
rfemur -0.381524 0.361578 21.9672
rtibia 18.7657
rfoot -17.4349 -3.84958
rtoes -1.69853
lfemur -11.2901 3.77836 -13.1218
ltibia 68.1126
lfoot -2.64766 -4.194
ltoes 10.8012
